<?xml version="1.0" encoding="utf-8"?>
<?xml-stylesheet type="text/xsl" href="rss1.xsl"?>
<rss version="2.0" xmlns:atom="http://www.w3.org/2005/Atom" xmlns:content="http://purl.org/rss/1.0/modules/content/" xmlns:dc="http://purl.org/dc/elements/1.1/" xmlns:media="http://search.yahoo.com/mrss/">
<channel>
 <title>Getty</title>
 <link>http://www.gettyimg.com/</link>
 <atom:link href="http://www.gettyimg.com/" rel="self" type="application/rss+xml" />

 
                <item>
                <title><![CDATA[【UPSCALED】Avril Lavigne - He Wasn't (Lpcm-Upscale-H264-Feisty2)]]></title>
                <link><![CDATA[https://sharemania.us/threads/avril-lavigne-he-wasnt-lpcm-upscale-h264-feisty2.246233/]]></link>
                <description><![CDATA[<article>
<blockquote class="messageText SelectQuoteContainer ugc baseHtml">
<img src="https://i.ibb.co/YkXSszz/Avril-Lavigne-He-Wasn-t-Lpcm-Upscale-H264-Feisty2-mov.jpg" class="bbCodeImage LbImage" alt="[​IMG]" data-url="https://i.ibb.co/YkXSszz/Avril-Lavigne-He-Wasn-t-Lpcm-Upscale-H264-Feisty2-mov.jpg" style=""> <a href="https://imgur.com/a/iRcYxvp" target="_blank" class="externalLink" rel="nofollow"><img src="https://i.imgur.com/rXyft21.jpeg" class="bbCodeImage LbImage" alt="[​IMG]" data-url="https://i.imgur.com/rXyft21.jpeg"> </a><br>
<br>
<br>
<img src="https://i.ibb.co/wCKgmQY/Pix-Pin-2024-06-05-23-42-36.png" class="bbCodeImage LbImage" alt="[​IMG]" data-url="https://i.ibb.co/wCKgmQY/Pix-Pin-2024-06-05-23-42-36.png" style=""> <br>
<b>credit:Feisty2</b><br>
<div class="bbCodeBlock bbCodeVfcHH HiddenContent">
<div class="attribution type">Hidden Content:</div>
<blockquote>You must either reply or click 'Like' to see the hidden information contained here.</blockquote>
</div>
<div class="ToggleTriggerAnchor bbCodeSpoilerContainer">
<button type="button" class="button bbCodeSpoilerButton ToggleTrigger Tooltip JsOnly" data-target="> .SpoilerTarget"><span>Spoiler</span></button>
<div class="SpoilerTarget bbCodeSpoilerText">General<br>
Complete name : H:\upscale MV\Avril Lavigne - He Wasn't (Lpcm-Upscale-H264-Feisty2).mov<br>
Format : MPEG-4<br>
Format profile : QuickTime<br>
Codec ID : qt 2005.03 (qt )<br>
File size : 943 MiB<br>
Duration : 3 min 3 s<br>
Overall bit rate : 43.2 Mb/s<br>
Frame rate : 23.976 FPS<br>
Director : The Malloys<br>
Encoded date : 2012-08-29 04:12:34 UTC<br>
Tagged date : 2012-08-29 04:27:14 UTC<br>
Writing application : Apple Final Cut Pro+Adobe After Effects<br>
Writing library : Apple QuickTime 7.7.2<br>
Comment : Tweaked and Upscaled by Feisty2,Original Output : ProRes4444 1080 24/1.001 p<br>
com.apple.quicktime.software : Apple Final Cut Pro+Adobe After Effects<br>
com.apple.quicktime.director : The Malloys<br>
com.apple.quicktime.player.mov : 1.000<br>
com.apple.quicktime.player.mov : 0.000<br>
com.apple.quicktime.player.mov : 0.000<br>
com.apple.quicktime.player.mov : 0.000<br>
com.apple.quicktime.player.mov : 0.000<br>
com.apple.quicktime.player.mov : (Binary)<br>
com.apple.quicktime.player.mov : 0.000<br>
com.apple.quicktime.player.mov : 1.000<br>
com.apple.quicktime.player.mov : 0.000<br>
com.apple.quicktime.player.mov : 1.000<br>
Video<br>
ID : 2<br>
Format : AVC<br>
Format/Info : Advanced Video Codec<br>
Format profile : Main@L4.1<br>
Format settings : 2 Ref Frames<br>
Format settings, CABAC : No<br>
Format settings, Reference fra : 2 frames<br>
Format settings, Slice count : 8 slices per frame<br>
Codec ID : avc1<br>
Codec ID/Info : Advanced Video Coding<br>
Duration : 3 min 3 s<br>
Bit rate : 41.7 Mb/s<br>
Width : 1 920 pixels<br>
Height : 1 080 pixels<br>
Display aspect ratio : 16:9<br>
Frame rate mode : Constant<br>
Frame rate : 23.976 (23976/1000) FPS<br>
Color space : YUV<br>
Chroma subsampling : 4:2:0<br>
Bit depth : 8 bits<br>
Scan type : Progressive<br>
Bits/(Pixel*Frame) : 0.838<br>
Stream size : 909 MiB (96%)<br>
Language : English<br>
Encoded date : 2012-08-29 04:11:43 UTC<br>
Tagged date : 2012-08-29 04:12:57 UTC<br>
Color range : Limited<br>
Color primaries : BT.709<br>
Transfer characteristics : BT.709<br>
Matrix coefficients : BT.709<br>
Codec configuration box : avcC<br>
Audio<br>
ID : 1<br>
Format : PCM<br>
Format settings : Little / Signed<br>
Codec ID : sowt<br>
Duration : 3 min 3 s<br>
Bit rate mode : Constant<br>
Bit rate : 1 536 kb/s<br>
Channel(s) : 2 channels<br>
Channel layout : L R<br>
Sampling rate : 48.0 kHz<br>
Bit depth : 16 bits<br>
Stream size : 33.5 MiB (4%)<br>
Language : English<br>
Encoded date : 2012-08-29 04:11:43 UTC<br>
Tagged date : 2012-08-29 04:27:14 UTC</div>
</div>
<div class="messageTextEndMarker">&nbsp;</div>
</blockquote>
</article>]]></description>
                <author><![CDATA[lokiavril]]></author>
                </item>

                </channel></rss>